<svg width="16" height="16" viewBox="0 0 16 16" fill="none" xmlns="http://www.w3.org/2000/svg">
<path fill-rule="evenodd" clip-rule="evenodd" d="M9.25645 1.5C6.36049 1.5 4.01286 3.84764 4.01286 6.74359C4.01286 8.19171 4.59922 9.50192 5.54867 10.4514C6.49812 11.4008 7.80833 11.9872 9.25645 11.9872C12.1524 11.9872 14.5 9.63955 14.5 6.74359C14.5 3.84764 12.1524 1.5 9.25645 1.5ZM3.01286 6.74359C3.01286 3.29535 5.80821 0.5 9.25645 0.5C12.7047 0.5 15.5 3.29535 15.5 6.74359C15.5 10.1918 12.7047 12.9872 9.25645 12.9872C7.71251 12.9872 6.29882 12.4262 5.20922 11.4979L1.35359 15.3536L0.646484 14.6464L4.50212 10.7908C3.57379 9.70121 3.01286 8.28753 3.01286 6.74359Z" fill="#9E9E9E"/>
</svg>
