<svg width="18" height="18" viewBox="0 0 18 18" fill="none" xmlns="http://www.w3.org/2000/svg">
<path fill-rule="evenodd" clip-rule="evenodd" d="M5.5 5C5.5 3.067 7.06701 1.5 9 1.5C10.933 1.5 12.5 3.067 12.5 5C12.5 6.933 10.933 8.5 9 8.5C7.06701 8.5 5.5 6.933 5.5 5ZM9 0.5C6.51472 0.5 4.5 2.51472 4.5 5C4.5 6.6374 5.37453 8.07055 6.68199 8.85783C3.75081 9.78197 1.485 12.388 0.753431 15.4009C0.396414 16.8713 1.66175 18 3 18H15C16.3383 18 17.6036 16.8713 17.2466 15.4009C16.515 12.388 14.2492 9.78197 11.318 8.85783C12.6255 8.07055 13.5 6.6374 13.5 5C13.5 2.51472 11.4853 0.5 9 0.5ZM1.7252 15.6369C2.55116 12.2352 5.52434 9.5 9 9.5C12.4757 9.5 15.4488 12.2352 16.2748 15.6369C16.439 16.3133 15.8709 17 15 17H3C2.12911 17 1.56096 16.3133 1.7252 15.6369Z" fill="#2D81CE"/>
</svg>
