<svg width="12" height="16" viewBox="0 0 12 16" fill="none" xmlns="http://www.w3.org/2000/svg">
<path fill-rule="evenodd" clip-rule="evenodd" d="M6 1C3.23858 1 1 3.23858 1 6C1 7.10479 1.35714 8.12325 1.96255 8.95011L6 14.3333L10.0367 8.95119C10.6425 8.12413 11 7.10527 11 6C11 3.23858 8.76142 1 6 1ZM10.8399 9.5469L6 16L1.15926 9.54571C0.430438 8.55238 0 7.32646 0 6C0 2.68629 2.68629 0 6 0C9.31371 0 12 2.68629 12 6C12 7.32699 11.5692 8.55336 10.8399 9.5469Z" fill="#2D81CE"/>
<path fill-rule="evenodd" clip-rule="evenodd" d="M6 8C7.10457 8 8 7.10457 8 6C8 4.89543 7.10457 4 6 4C4.89543 4 4 4.89543 4 6C4 7.10457 4.89543 8 6 8ZM6 9C7.65685 9 9 7.65685 9 6C9 4.34315 7.65685 3 6 3C4.34315 3 3 4.34315 3 6C3 7.65685 4.34315 9 6 9Z" fill="#2D81CE"/>
</svg>
