<svg width="20" height="18" viewBox="0 0 20 18" fill="none" xmlns="http://www.w3.org/2000/svg">
<path fill-rule="evenodd" clip-rule="evenodd" d="M6 1.5C6 1.22386 6.22386 1 6.5 1H13.5C13.7761 1 14 1.22386 14 1.5V3H6V1.5ZM15 1.5V3H18.5C19.3284 3 20 3.67157 20 4.5V8.807C20 9.43227 19.6121 9.99195 19.0267 10.2115L19 10.2215V16.5C19 17.3284 18.3284 18 17.5 18H2.5C1.67157 18 1 17.3284 1 16.5V9.80902L0.82918 9.72361C0.321003 9.46952 0 8.95012 0 8.38197V4.5C0 3.67157 0.671573 3 1.5 3H5V1.5C5 0.671573 5.67157 0 6.5 0H13.5C14.3284 0 15 0.671573 15 1.5ZM15.8454 11.4045L18 10.5965V16.5C18 16.7761 17.7761 17 17.5 17H2.5C2.22386 17 2 16.7761 2 16.5V10.309L4.06525 11.3416C4.27353 11.4458 4.5032 11.5 4.73607 11.5H5V12.5C5 13.3284 5.67157 14 6.5 14C7.32843 14 8 13.3284 8 12.5V11.5H12V12.5C12 13.3284 12.6716 14 13.5 14C14.3284 14 15 13.3284 15 12.5V11.5H15.3187C15.4985 11.5 15.6769 11.4677 15.8454 11.4045ZM5 10.5C5 9.67157 5.67157 9 6.5 9C7.32843 9 8 9.67157 8 10.5H12C12 9.67157 12.6716 9 13.5 9C14.3284 9 15 9.67157 15 10.5H15.3187C15.3786 10.5 15.4381 10.4892 15.4942 10.4682L18.6756 9.27516C18.8707 9.20198 19 9.01542 19 8.807V4.5C19 4.22386 18.7761 4 18.5 4H1.5C1.22386 4 1 4.22386 1 4.5V8.38197C1 8.57135 1.107 8.74448 1.27639 8.82918L4.51246 10.4472C4.58189 10.4819 4.65845 10.5 4.73607 10.5H5ZM6 10.5C6 10.2239 6.22386 10 6.5 10C6.77614 10 7 10.2239 7 10.5V12.5C7 12.7761 6.77614 13 6.5 13C6.22386 13 6 12.7761 6 12.5V10.5ZM13.5 10C13.2239 10 13 10.2239 13 10.5V12.5C13 12.7761 13.2239 13 13.5 13C13.7761 13 14 12.7761 14 12.5V10.5C14 10.2239 13.7761 10 13.5 10Z" fill="#2D81CE"/>
</svg>
